<?xml version="1.0" standalone="no"?>
<!DOCTYPE svg PUBLIC "-//W3C//DTD SVG 20010904//EN"
 "http://www.w3.org/TR/2001/REC-SVG-20010904/DTD/svg10.dtd">
<svg version="1.0" xmlns="http://www.w3.org/2000/svg"
 width="512.000000pt" height="512.000000pt" viewBox="0 0 512.000000 512.000000"
 preserveAspectRatio="xMidYMid meet">
<metadata>
Created by potrace 1.16, written by Peter Selinger 2001-2019
</metadata>
<g transform="translate(0.000000,512.000000) scale(0.100000,-0.100000)"
fill="#000000" stroke="none">
<path d="M2290 4403 c-130 -4 -368 -23 -435 -34 -138 -23 -195 -58 -195 -122
0 -23 4 -28 18 -25 15 4 17 0 14 -27 -3 -27 2 -37 33 -62 31 -26 36 -36 33
-63 -4 -45 -21 -48 -36 -6 -20 54 -82 131 -132 164 -86 56 -154 75 -270 76
-96 1 -109 -1 -157 -26 -107 -57 -174 -141 -219 -274 -53 -159 -42 -399 28
-609 106 -315 299 -577 650 -877 75 -64 139 -122 143 -127 3 -6 -9 -23 -26
-39 -37 -33 -33 -49 16 -58 33 -6 34 -8 40 -63 9 -83 14 -101 28 -101 21 0 86
60 105 96 l17 34 105 -88 c58 -48 133 -114 168 -146 54 -52 62 -64 62 -96 0
-21 -7 -43 -15 -50 -8 -7 -15 -21 -15 -32 0 -28 -39 -146 -68 -203 -35 -71
-107 -170 -157 -216 -24 -22 -47 -54 -50 -70 -4 -16 -10 -29 -15 -29 -5 0 -22
-14 -39 -31 l-31 -31 0 -249 c0 -236 -1 -250 -20 -269 -15 -15 -33 -20 -74
-20 -69 0 -103 -13 -117 -44 -8 -16 -23 -26 -47 -31 -23 -4 -49 -20 -69 -42
-29 -30 -33 -41 -33 -88 0 -44 -5 -59 -25 -79 -14 -14 -25 -34 -25 -46 l0 -20
1080 0 1080 0 0 25 c0 16 -11 32 -30 47 -27 20 -30 27 -30 81 0 54 -3 62 -34
93 -21 21 -44 34 -59 34 -17 0 -28 7 -32 20 -11 36 -47 50 -117 49 -114 -3
-108 -18 -108 268 0 231 -1 248 -21 279 -11 19 -34 43 -50 55 -16 11 -29 25
-29 31 0 6 -27 39 -59 74 -91 97 -138 187 -193 364 -12 41 -25 77 -29 80 -3 3
-9 18 -12 35 -7 40 17 78 76 121 26 19 47 38 47 42 0 5 45 50 101 101 l101 93
50 -57 c59 -65 106 -94 119 -73 5 7 9 36 9 65 0 63 7 83 29 83 9 0 23 5 31 10
12 8 9 15 -18 43 l-33 34 108 99 c196 180 314 298 388 389 250 309 367 591
367 885 0 196 -45 334 -141 428 -121 118 -282 139 -449 56 -74 -36 -134 -97
-170 -171 -19 -40 -42 -33 -42 13 0 29 5 36 35 48 21 9 39 26 46 43 6 15 16
38 22 51 23 49 -42 111 -136 132 -219 47 -636 68 -1087 53z m858 -44 c109 -12
213 -32 257 -50 50 -19 10 -22 -93 -5 -53 9 -142 20 -197 26 -119 13 -863 14
-897 1 -13 -4 -63 -11 -113 -15 -49 -4 -111 -9 -137 -13 -61 -7 -65 12 -5 23
23 4 36 9 29 11 -15 6 -120 -11 -210 -33 -73 -18 -93 -12 -37 12 70 29 189 46
375 54 237 10 901 3 1028 -11z m-28 -49 c92 -15 172 -31 168 -35 -2 -2 -68 7
-148 20 -80 13 -131 24 -115 24 17 0 59 -4 95 -9z m-431 -6 c27 -6 31 -11 31
-39 0 -30 3 -33 38 -39 20 -3 69 -6 107 -6 106 -1 343 -27 405 -46 59 -17 97
-42 47 -30 -52 12 -282 45 -402 57 -187 19 -624 6 -850 -25 -99 -13 -189 -27
-200 -30 -16 -5 -15 -4 3 5 12 7 22 18 22 25 0 22 240 54 412 54 l108 0 -20
33 -20 32 68 6 c101 8 216 10 251 3z m-1265 -29 c31 -8 70 -22 84 -31 15 -8
18 -13 7 -9 -10 3 -40 8 -65 10 l-45 4 42 -9 c137 -30 264 -161 243 -250 l-8
-35 1 40 c2 154 -255 278 -452 219 -99 -29 -190 -149 -220 -292 -17 -83 -13
-242 9 -352 54 -267 172 -488 382 -720 194 -214 321 -300 481 -325 41 -6 63
-31 73 -81 4 -21 1 -36 -9 -46 -9 -8 -27 -51 -40 -94 -20 -63 -26 -73 -28 -49
-1 17 -1 38 -1 48 1 12 -2 16 -10 11 -8 -5 -9 -2 -5 10 4 10 3 15 -3 11 -6 -3
-10 -38 -10 -78 0 -66 1 -69 16 -51 14 18 15 18 4 -4 -6 -13 -17 -21 -23 -19
-15 5 -21 120 -8 145 14 27 -24 69 -187 205 -468 390 -729 865 -709 1292 7
132 31 217 86 303 89 137 231 190 395 147z m813 0 c3 -9 3 -19 -1 -22 -3 -4
-67 -12 -141 -19 -75 -7 -156 -16 -180 -20 -41 -6 -45 -4 -45 14 0 17 11 21
83 32 45 7 123 15 172 20 50 4 94 8 98 9 4 0 10 -6 14 -14z m978 -21 c44 -8
85 -21 91 -29 6 -8 22 -19 35 -25 20 -8 17 -9 -17 -4 -23 3 -103 13 -178 22
-75 10 -136 21 -136 25 0 4 0 14 0 22 0 13 10 15 63 10 34 -3 98 -13 142 -21z
m602 -4 c-52 -10 -55 -18 -11 -26 60 -10 151 -63 193 -110 89 -101 134 -234
133 -394 -2 -284 -135 -591 -382 -881 -44 -51 -87 -97 -95 -102 -9 -4 -13 -12
-11 -16 5 -7 -101 -113 -261 -261 -38 -36 -80 -78 -92 -95 l-22 -30 16 32 c8
18 89 101 180 185 90 84 162 155 159 157 -2 3 -35 -25 -72 -61 -37 -36 -103
-92 -147 -125 -94 -71 -110 -88 -161 -168 l-38 -60 -13 50 c-31 120 -11 162
88 182 152 31 258 114 423 331 218 287 277 386 331 552 48 149 46 367 -6 504
-49 133 -169 203 -275 163 -56 -22 -85 -51 -104 -106 -17 -51 -18 -52 -24 -25
-3 16 -2 44 3 62 34 117 141 169 260 127 57 -20 51 -9 -11 20 -100 47 -228 26
-278 -45 -51 -72 -27 -188 50 -237 74 -47 76 -49 61 -67 -34 -41 -127 -3 -169
69 -19 34 -22 51 -20 122 3 84 -4 94 -28 39 -10 -24 -13 -26 -14 -10 0 28 49
102 94 141 68 60 148 91 236 91 l45 0 -38 -8z m-2004 -57 c-7 -2 -19 -2 -25 0
-7 3 -2 5 12 5 14 0 19 -2 13 -5z m-228 -54 c24 -22 49 -57 56 -76 27 -83 -13
-203 -86 -259 -38 -29 -110 -42 -135 -24 -17 12 -16 12 66 70 60 41 87 103 82
184 -3 48 -11 74 -31 105 -37 55 -12 55 48 0z m1161 6 l1 -35 -186 0 -186 0
-2 35 -3 35 188 0 187 0 1 -35z m-991 7 c-3 -3 -11 0 -18 7 -9 10 -8 11 6 5
10 -3 15 -9 12 -12z m473 -14 l-3 -32 -170 -18 c-93 -9 -173 -17 -176 -18 -3
0 -4 11 -2 24 4 19 15 27 46 34 38 10 150 26 247 35 19 2 41 5 48 5 9 1 12 -8
10 -30z m997 -2 c66 -17 78 -26 69 -50 -5 -13 -14 -16 -38 -12 -17 3 -84 10
-148 17 l-118 12 0 31 0 32 88 -7 c49 -4 115 -14 147 -23z m-1779 -72 c45 -22
64 -50 64 -97 0 -52 -25 -60 -59 -19 -30 38 -61 41 -108 12 -86 -52 -85 -200
2 -265 54 -42 119 -51 224 -31 132 24 126 30 134 -162 15 -365 62 -642 141
-839 40 -99 36 -102 -75 -46 -131 65 -361 312 -481 519 -192 329 -244 712
-118 866 43 52 102 78 178 78 38 0 78 -7 98 -16z m1567 6 c164 -12 340 -42
404 -70 39 -17 42 -21 48 -72 4 -29 0 -161 -8 -293 l-15 -240 6 265 c3 192 2
272 -7 288 -7 14 -33 28 -77 42 -76 23 -113 25 -119 8 -2 -7 -8 -186 -14 -398
-14 -496 -34 -650 -122 -920 -33 -100 -49 -130 -49 -91 0 33 -12 20 -64 -69
-25 -44 -48 -80 -51 -80 -3 0 12 35 34 78 22 42 53 122 70 177 111 363 157
658 168 1076 6 233 6 237 -15 248 -77 41 -991 45 -1277 6 -36 -5 -38 -5 -22 9
20 15 81 24 242 36 155 11 703 11 868 0z m884 -27 c72 -34 125 -141 144 -293
22 -172 -16 -335 -123 -522 -151 -266 -406 -540 -583 -627 -34 -17 -65 -31
-68 -31 -3 0 11 42 32 93 112 269 155 480 186 919 l7 87 32 7 c18 3 51 1 72
-5 67 -19 154 -13 199 12 120 68 134 231 25 304 -18 13 -37 23 -42 23 -5 0
-25 -16 -44 -36 -32 -31 -57 -41 -55 -21 1 4 1 13 1 21 0 16 48 65 75 77 34
13 105 10 142 -8z m-873 -29 l29 -7 -7 -186 c-20 -538 -52 -823 -123 -1081
-14 -52 -27 -106 -28 -120 -8 -94 -6 -88 -14 -60 -6 23 -10 20 -41 -39 -66
-124 -177 -221 -252 -221 -22 0 -52 7 -67 15 -49 25 -117 111 -169 213 -98
191 -127 338 -141 712 l-8 225 -1 -194 c-2 -193 -2 -194 -22 -176 -20 18 -20
17 -20 -16 0 -127 41 -317 102 -471 60 -153 108 -299 108 -328 0 -113 -151
-26 -236 136 -126 240 -206 542 -234 888 -12 148 -13 645 -2 663 4 6 19 16 32
21 25 10 191 29 305 36 96 6 757 -3 789 -10z m-1286 -218 c1 -101 -2 -194 -7
-207 -7 -17 -10 39 -10 177 -1 167 2 214 13 214 1 0 2 -83 4 -184z m-375 128
c-22 -22 -25 -32 -20 -72 7 -68 48 -102 123 -102 30 0 68 7 83 15 43 22 100
93 116 145 7 25 14 36 14 25 1 -11 -11 -45 -26 -75 -32 -67 -31 -108 2 -80 8
7 15 9 16 4 0 -5 4 0 9 11 7 15 9 9 9 -25 l1 -45 -52 1 c-31 0 -53 5 -53 11 0
21 -12 23 -41 8 -16 -8 -49 -16 -74 -16 -25 -1 -35 -4 -23 -6 12 -2 24 -11 27
-19 4 -11 -4 -14 -32 -14 -118 0 -185 169 -95 240 36 28 47 25 16 -6z m2186
-113 c16 -20 38 -37 48 -38 10 -1 43 -4 74 -8 103 -13 168 41 155 131 -3 24
-1 46 4 49 16 10 40 -39 40 -83 0 -53 -18 -89 -64 -129 -48 -43 -95 -49 -180
-23 -38 12 -82 20 -98 18 l-28 -5 0 76 c0 42 -3 94 -5 116 -5 35 -3 33 10 -14
8 -29 28 -70 44 -90z m-1736 -178 c10 -479 77 -798 231 -1100 35 -68 61 -123
59 -123 -10 0 -101 153 -139 235 -56 117 -125 328 -153 460 -32 157 -41 287
-41 574 1 259 1 265 19 244 16 -19 19 -50 24 -290z m1594 67 c-11 -346 -27
-507 -73 -708 -9 -40 -18 -71 -21 -68 -2 2 4 46 15 98 11 51 26 136 32 188 11
93 29 487 30 643 0 57 3 76 12 71 8 -5 9 -65 5 -224z m-136 -546 c-6 -89 -18
-197 -26 -240 -16 -79 -117 -347 -156 -414 -25 -43 -21 -30 26 84 90 221 150
558 157 894 2 88 3 85 6 -33 2 -71 -2 -203 -7 -291z m166 169 c-2 -16 -4 -5
-4 22 0 28 2 40 4 28 2 -13 2 -35 0 -50z m-10 -90 c-3 -10 -5 -2 -5 17 0 19 2
27 5 18 2 -10 2 -26 0 -35z m-10 -70 c-3 -10 -5 -4 -5 12 0 17 2 24 5 18 2 -7
2 -21 0 -30z m-1660 -5 c-3 -8 -6 -5 -6 6 -1 11 2 17 5 13 3 -3 4 -12 1 -19z
m1650 -50 c-3 -7 -5 -2 -5 12 0 14 2 19 5 13 2 -7 2 -19 0 -25z m-1606 -150
c36 -146 107 -338 151 -415 35 -59 61 -119 35 -79 -7 10 -22 32 -34 50 -36 51
-91 172 -122 271 -33 101 -72 279 -70 317 2 22 2 22 6 -2 3 -14 18 -78 34
-142z m1596 100 c-3 -7 -5 -2 -5 12 0 14 2 19 5 13 2 -7 2 -19 0 -25z m-10
-40 c-3 -8 -6 -5 -6 6 -1 11 2 17 5 13 3 -3 4 -12 1 -19z m-10 -40 c-3 -8 -6
-5 -6 6 -1 11 2 17 5 13 3 -3 4 -12 1 -19z m-38 -125 c-31 -95 -115 -281 -143
-318 -13 -16 -30 -43 -39 -60 -9 -16 -16 -25 -17 -19 0 7 16 34 35 62 41 60
124 241 156 340 12 40 25 70 27 67 2 -2 -6 -34 -19 -72z m-32 35 c-3 -8 -6 -5
-6 6 -1 11 2 17 5 13 3 -3 4 -12 1 -19z m-433 -392 c-3 -15 -8 -25 -11 -23 -2
3 -1 17 3 31 3 15 8 25 11 23 2 -3 1 -17 -3 -31z m162 -130 c-19 -28 -65 -80
-102 -116 l-68 -65 55 62 c30 33 74 95 99 136 33 55 46 70 48 55 2 -11 -12
-43 -32 -72z m95 55 c-15 -28 -130 -181 -136 -181 -6 0 14 29 90 133 50 68 64
82 46 48z m-1336 -71 c-8 -13 -56 -33 -63 -26 -2 3 11 14 29 25 34 21 46 21
34 1z m1026 -7 c-12 -20 -14 -14 -5 12 4 9 9 14 11 11 3 -2 0 -13 -6 -23z
m488 -115 c0 -27 -2 -48 -6 -48 -4 0 -20 12 -35 27 -20 19 -28 36 -27 57 l1
31 7 -31 c19 -76 41 -72 42 9 1 49 3 56 9 32 4 -16 8 -51 9 -77z m-1178 -43
l41 -50 -49 51 c-27 28 -64 71 -82 95 l-33 44 41 -45 c23 -25 60 -67 82 -95z
m839 2 c0 -2 -10 -12 -22 -23 l-23 -19 19 23 c18 21 26 27 26 19z m-234 -57
c146 -10 174 -15 174 -32 0 -7 -15 -8 -42 -3 -112 20 -281 21 -228 2 8 -3 24
-7 35 -9 11 -2 -68 -7 -175 -11 -107 -4 -211 -10 -230 -14 -48 -8 -32 6 27 23
l48 14 -74 -5 c-66 -4 -73 -2 -59 11 29 29 278 41 524 24z m134 -61 c0 -7 -26
-8 -82 -3 -46 3 -85 8 -87 10 -2 2 35 4 82 4 55 0 87 -4 87 -11z m-292 -50 c3
-25 1 -26 -59 -33 -34 -3 -95 -6 -136 -6 -67 0 -74 2 -82 23 -5 12 -8 23 -6
25 7 8 131 20 200 18 78 -1 80 -2 83 -27z m159 -9 c-7 -19 -17 -28 -25 -25 -8
3 -22 5 -33 5 -14 0 -19 7 -19 25 0 23 4 25 44 25 l44 0 -11 -30z m73 6 c0
-17 -14 -34 -25 -30 -17 7 -8 34 11 34 8 0 14 -2 14 -4z m-10 -65 c0 -5 -104
-9 -242 -9 -134 0 -229 4 -213 8 43 11 455 12 455 1z m-212 -58 l-3 -28 -132
-3 c-123 -2 -132 -1 -126 15 14 40 23 43 145 43 l119 0 -3 -27z m146 11 c11
-29 6 -34 -33 -34 -37 0 -51 11 -51 41 0 16 77 10 84 -7z m66 -14 c0 -11 -6
-20 -14 -20 -7 0 -16 9 -19 20 -4 15 0 20 14 20 12 0 19 -7 19 -20z m-495 -29
c-3 -6 -11 -11 -16 -11 -5 0 -4 6 3 14 14 16 24 13 13 -3z m453 -26 c-10 -8
-378 -13 -378 -5 0 6 74 11 178 12 158 3 209 1 200 -7z m65 -2 c-7 -2 -19 -2
-25 0 -7 3 -2 5 12 5 14 0 19 -2 13 -5z m-319 -92 c-11 -115 -23 -193 -29
-199 -3 -3 -46 -9 -95 -12 -167 -10 -103 -20 128 -20 128 0 232 3 232 8 0 4
-7 29 -15 56 -8 27 -20 79 -25 115 -6 36 -13 76 -16 89 -4 21 -1 22 54 22 l58
0 32 -97 c17 -54 48 -124 67 -155 l34 -58 -374 0 c-206 0 -375 2 -375 4 0 3
17 41 39 85 21 44 46 112 56 151 l17 71 109 -2 109 -2 -6 -56z m377 -47 c15
-48 42 -109 58 -136 33 -52 41 -77 15 -43 -31 39 -74 135 -94 206 -26 97 -14
80 21 -27z m-643 -21 c-24 -58 -97 -177 -104 -170 -3 2 16 34 40 71 25 36 53
91 63 122 9 31 19 51 21 46 2 -6 -7 -37 -20 -69z m145 -210 c-45 -2 -122 -2
-170 0 -48 1 -11 3 82 3 94 0 133 -2 88 -3z m562 -2 c33 -7 23 -9 -50 -9 -49
0 -115 3 -145 8 -48 6 -42 7 50 8 58 0 123 -3 145 -7z m78 -50 c9 -4 -205 -6
-477 -6 -272 0 -492 2 -489 5 2 3 41 8 86 11 100 8 855 -1 880 -10z m-539 -30
c3 -5 -2 -15 -11 -22 -22 -19 -392 -26 -425 -8 -23 12 -22 12 12 25 41 15 416
19 424 5z m531 -12 c7 -20 32 -21 28 0 -4 17 14 13 21 -5 3 -9 6 -18 6 -20 0
-2 -69 -4 -154 -4 l-154 0 21 25 c21 23 28 25 124 25 94 0 102 -2 108 -21z
m-405 -19 c10 -6 -4 -9 -42 -10 -44 0 -58 4 -58 14 0 11 10 13 42 9 23 -2 49
-8 58 -13z m542 -58 c11 -12 -20 -13 -187 -5 -215 9 -827 7 -937 -3 -45 -4
-68 -2 -68 4 0 18 62 19 632 18 444 -1 549 -4 560 -14z m-644 -39 c-104 -2
-272 -2 -375 0 -104 1 -19 2 187 2 206 0 291 -1 188 -2z m590 0 c-42 -2 -114
-2 -160 0 -46 1 -11 3 77 3 88 0 125 -2 83 -3z m-230 -30 l322 -6 0 -251 c0
-200 -2 -247 -12 -237 -10 9 -12 63 -10 214 1 111 0 214 -4 230 l-6 27 -598 0
-599 0 -7 -22 c-3 -12 -3 -110 0 -219 6 -155 4 -203 -6 -221 -11 -20 -14 12
-18 217 -3 132 -3 245 -2 252 6 20 425 27 940 16z m-402 -165 c-3 -40 -7 -133
-8 -205 l-3 -133 -221 0 -222 0 -1 205 -2 205 232 0 231 0 -6 -72z m634 -133
l0 -205 -167 0 -168 0 3 205 3 205 164 0 165 0 0 -205z m310 -245 c10 -6 -285
-10 -843 -10 -570 0 -856 3 -852 10 8 13 1674 13 1695 0z m103 -63 c15 -9 27
-22 27 -27 0 -6 -122 -10 -332 -9 -183 1 -326 3 -317 6 9 2 140 8 290 12 206
6 62 8 -586 8 -864 0 -934 -9 -182 -23 l337 -6 0 -29 0 -29 -433 0 -434 0 -22
24 c-17 18 -19 25 -9 29 7 3 -51 6 -129 6 -85 1 -143 5 -143 11 0 13 38 32 80
41 19 4 438 6 930 5 839 -1 898 -2 923 -19z"/>
<path d="M1275 4253 c-45 -10 -115 -35 -120 -43 -3 -4 23 1 58 12 34 11 91 23
127 27 l65 8 -55 1 c-30 0 -64 -2 -75 -5z"/>
<path d="M2658 3993 l-76 -4 -6 -62 c-6 -73 -15 -240 -18 -350 l-2 -78 -76 3
-75 3 -5 245 -6 245 -2 -257 -2 -258 185 0 185 0 0 260 c0 202 -3 260 -12 258
-7 -1 -48 -4 -90 -5z"/>
<path d="M1594 3778 l-19 -23 23 19 c21 18 27 26 19 26 -2 0 -12 -10 -23 -22z"/>
<path d="M1600 3740 c-9 -6 -10 -10 -3 -10 6 0 15 5 18 10 8 12 4 12 -15 0z"/>
</g>
</svg>